<svg xmlns="http://www.w3.org/2000/svg" viewBox="0 0 600 360"><rect width="600" height="360" fill="#0e1430"/><text x="300" y="40" fill="#eef2ff" font-size="22" text-anchor="middle" font-family="system-ui">Pasos y cruces / crossings</text><g><rect x="40" y="70" width="150" height="180" rx="8" fill="#1b2547"/><g fill="#fff"><rect x="55" y="85" width="120" height="14"/><rect x="55" y="115" width="120" height="14"/><rect x="55" y="145" width="120" height="14"/><rect x="55" y="175" width="120" height="14"/><rect x="55" y="205" width="120" height="14"/></g><text x="115" y="280" fill="#9aa6c7" font-size="16" text-anchor="middle" font-family="system-ui">cebra EU</text><rect x="225" y="70" width="150" height="180" rx="8" fill="#1b2547"/><g stroke="#fff" stroke-width="6"><line x1="245" y1="85" x2="245" y2="235"/><line x1="355" y1="85" x2="355" y2="235"/><line x1="245" y1="95" x2="355" y2="95"/><line x1="245" y1="160" x2="355" y2="160"/><line x1="245" y1="225" x2="355" y2="225"/></g><text x="300" y="280" fill="#9aa6c7" font-size="16" text-anchor="middle" font-family="system-ui">escalera JP/US</text><rect x="410" y="70" width="150" height="180" rx="8" fill="#1b2547"/><rect x="430" y="120" width="110" height="80" fill="none" stroke="#facc15" stroke-width="6"/><line x1="430" y1="120" x2="540" y2="200" stroke="#facc15" stroke-width="5"/><text x="485" y="280" fill="#9aa6c7" font-size="16" text-anchor="middle" font-family="system-ui">box UK</text></g><text x="300" y="322" fill="#9aa6c7" font-size="15" text-anchor="middle" font-family="system-ui">caja amarilla = UK · ladder = JP/US · cebra ancha = EU</text></svg>
